<?xml version="1.0" encoding="UTF-8"?>
<svg width="800" height="400" xmlns="http://www.w3.org/2000/svg">
    <defs>
        <style>
            .chart-title { font-family: Arial, sans-serif; font-size: 16px; font-weight: bold; fill: #333333; }
            .axis-label { font-family: Arial, sans-serif; font-size: 12px; fill: #666666; }
            .grid-line { stroke: #e0e0e0; stroke-width: 1; }
            .train-line { stroke: #1f77b4; stroke-width: 2; fill: none; }
            .val-line { stroke: #ff7f0e; stroke-width: 2; fill: none; }
            .lr-line { stroke: #2ca02c; stroke-width: 2; fill: none; }
        </style>
    </defs>
    
    <!-- 背景 -->
    <rect width="800" height="400" fill="#ffffff"/>
    
    <!-- 標題 -->
    <text x="400" y="30" text-anchor="middle" class="chart-title">epoch_accuracy</text>
    <line x1="60.0" y1="60" x2="60.0" y2="340" class="grid-line"/>
    <line x1="145.0" y1="60" x2="145.0" y2="340" class="grid-line"/>
    <line x1="230.0" y1="60" x2="230.0" y2="340" class="grid-line"/>
    <line x1="315.0" y1="60" x2="315.0" y2="340" class="grid-line"/>
    <line x1="400.0" y1="60" x2="400.0" y2="340" class="grid-line"/>
    <line x1="485.0" y1="60" x2="485.0" y2="340" class="grid-line"/>
    <line x1="570.0" y1="60" x2="570.0" y2="340" class="grid-line"/>
    <line x1="655.0" y1="60" x2="655.0" y2="340" class="grid-line"/>
    <line x1="740.0" y1="60" x2="740.0" y2="340" class="grid-line"/>
    <line x1="60" y1="60.0" x2="740" y2="60.0" class="grid-line"/>
    <line x1="60" y1="116.0" x2="740" y2="116.0" class="grid-line"/>
    <line x1="60" y1="172.0" x2="740" y2="172.0" class="grid-line"/>
    <line x1="60" y1="228.0" x2="740" y2="228.0" class="grid-line"/>
    <line x1="60" y1="284.0" x2="740" y2="284.0" class="grid-line"/>
    <line x1="60" y1="340.0" x2="740" y2="340.0" class="grid-line"/>
    <line x1="60" y1="60" x2="60" y2="340" stroke="#666666" stroke-width="2"/>
    <line x1="60" y1="340" x2="740" y2="340" stroke="#666666" stroke-width="2"/>
    <text x="50" y="344.0" text-anchor="end" class="axis-label">0.70</text>
    <text x="50" y="288.0" text-anchor="end" class="axis-label">0.76</text>
    <text x="50" y="232.0" text-anchor="end" class="axis-label">0.82</text>
    <text x="50" y="176.0" text-anchor="end" class="axis-label">0.88</text>
    <text x="50" y="120.0" text-anchor="end" class="axis-label">0.94</text>
    <text x="50" y="64.0" text-anchor="end" class="axis-label">1.00</text>
    <text x="60.0" y="360" text-anchor="middle" class="axis-label">1</text>
    <text x="145.0" y="360" text-anchor="middle" class="axis-label">3</text>
    <text x="230.0" y="360" text-anchor="middle" class="axis-label">5</text>
    <text x="315.0" y="360" text-anchor="middle" class="axis-label">7</text>
    <text x="400.0" y="360" text-anchor="middle" class="axis-label">9</text>
    <text x="485.0" y="360" text-anchor="middle" class="axis-label">11</text>
    <text x="570.0" y="360" text-anchor="middle" class="axis-label">13</text>
    <text x="655.0" y="360" text-anchor="middle" class="axis-label">15</text>
    <text x="740.0" y="360" text-anchor="middle" class="axis-label">17</text>
    <text x="400" y="390" text-anchor="middle" class="axis-label">Epoch</text>
    <text x="20" y="200" text-anchor="middle" class="axis-label" transform="rotate(-90, 20, 200)">Accuracy</text>
    <path d="M 60.0,293.3333333333333 L 102.5,246.6666666666666 L 145.0,200.0 L 187.5,153.3333333333334 L 230.0,106.66666666666669 L 272.5,100.13333333333335 L 315.0,93.60000000000002 L 357.5,87.06666666666669 L 400.0,80.53333333333336 L 442.5,74.0 L 485.0,72.26666666666665 L 527.5,70.53333333333336 L 570.0,68.80000000000001 L 612.5,67.06666666666666 L 655.0,65.33333333333326 L 697.5,63.60000000000002 L 740.0,61.866666666666674" class="train-line"/>
    <path d="M 60.0,302.66666666666663 L 102.5,253.762680819847 L 145.0,205.4064687375632 L 187.5,158.01169006251445 L 230.0,111.75661200814685 L 272.5,106.67379666084824 L 315.0,102.27477329572068 L 357.5,98.03698839588492 L 400.0,93.3984116447703 L 442.5,87.89514054910384 L 485.0,86.07497994842794 L 527.5,83.15918818599528 L 570.0,79.4372723249283 L 612.5,75.39610672225689 L 655.0,71.60072920597901 L 697.5,68.55600010838464 L 740.0,66.58299484909088" class="val-line"/>
    <line x1="650" y1="80" x2="670" y2="80" class="train-line"/>
    <text x="675" y="84" class="axis-label">Training</text>
    <line x1="650" y1="100" x2="670" y2="100" class="val-line"/>
    <text x="675" y="104" class="axis-label">Validation</text>
</svg>