<?xml version="1.0" encoding="UTF-8"?>
<svg width="800" height="400" xmlns="http://www.w3.org/2000/svg">
    <defs>
        <style>
            .chart-title { font-family: Arial, sans-serif; font-size: 16px; font-weight: bold; fill: #333333; }
            .axis-label { font-family: Arial, sans-serif; font-size: 12px; fill: #666666; }
            .grid-line { stroke: #e0e0e0; stroke-width: 1; }
            .train-line { stroke: #1f77b4; stroke-width: 2; fill: none; }
            .val-line { stroke: #ff7f0e; stroke-width: 2; fill: none; }
            .lr-line { stroke: #2ca02c; stroke-width: 2; fill: none; }
        </style>
    </defs>
    
    <!-- 背景 -->
    <rect width="800" height="400" fill="#ffffff"/>
    
    <!-- 標題 -->
    <text x="400" y="30" text-anchor="middle" class="chart-title">learning_rate</text>
    <line x1="60.0" y1="60" x2="60.0" y2="340" class="grid-line"/>
    <line x1="145.0" y1="60" x2="145.0" y2="340" class="grid-line"/>
    <line x1="230.0" y1="60" x2="230.0" y2="340" class="grid-line"/>
    <line x1="315.0" y1="60" x2="315.0" y2="340" class="grid-line"/>
    <line x1="400.0" y1="60" x2="400.0" y2="340" class="grid-line"/>
    <line x1="485.0" y1="60" x2="485.0" y2="340" class="grid-line"/>
    <line x1="570.0" y1="60" x2="570.0" y2="340" class="grid-line"/>
    <line x1="655.0" y1="60" x2="655.0" y2="340" class="grid-line"/>
    <line x1="740.0" y1="60" x2="740.0" y2="340" class="grid-line"/>
    <line x1="60" y1="60.0" x2="740" y2="60.0" class="grid-line"/>
    <line x1="60" y1="116.0" x2="740" y2="116.0" class="grid-line"/>
    <line x1="60" y1="172.0" x2="740" y2="172.0" class="grid-line"/>
    <line x1="60" y1="228.0" x2="740" y2="228.0" class="grid-line"/>
    <line x1="60" y1="284.0" x2="740" y2="284.0" class="grid-line"/>
    <line x1="60" y1="340.0" x2="740" y2="340.0" class="grid-line"/>
    <line x1="60" y1="60" x2="60" y2="340" stroke="#666666" stroke-width="2"/>
    <line x1="60" y1="340" x2="740" y2="340" stroke="#666666" stroke-width="2"/>
    <text x="50" y="344.0" text-anchor="end" class="axis-label">0.0002</text>
    <text x="50" y="288.0" text-anchor="end" class="axis-label">0.0004</text>
    <text x="50" y="232.0" text-anchor="end" class="axis-label">0.0006</text>
    <text x="50" y="176.0" text-anchor="end" class="axis-label">0.0008</text>
    <text x="50" y="120.0" text-anchor="end" class="axis-label">0.0010</text>
    <text x="50" y="64.0" text-anchor="end" class="axis-label">0.0012</text>
    <text x="60.0" y="360" text-anchor="middle" class="axis-label">1</text>
    <text x="145.0" y="360" text-anchor="middle" class="axis-label">3</text>
    <text x="230.0" y="360" text-anchor="middle" class="axis-label">5</text>
    <text x="315.0" y="360" text-anchor="middle" class="axis-label">7</text>
    <text x="400.0" y="360" text-anchor="middle" class="axis-label">9</text>
    <text x="485.0" y="360" text-anchor="middle" class="axis-label">11</text>
    <text x="570.0" y="360" text-anchor="middle" class="axis-label">13</text>
    <text x="655.0" y="360" text-anchor="middle" class="axis-label">15</text>
    <text x="740.0" y="360" text-anchor="middle" class="axis-label">17</text>
    <text x="400" y="390" text-anchor="middle" class="axis-label">Epoch</text>
    <text x="20" y="200" text-anchor="middle" class="axis-label" transform="rotate(-90, 20, 200)">Learning Rate</text>
    <path d="M 60.0,115.99999999999994 L 102.5,115.99999999999994 L 145.0,115.99999999999994 L 187.5,115.99999999999994 L 230.0,115.99999999999994 L 272.5,115.99999999999994 L 315.0,115.99999999999994 L 357.5,255.99999999999997 L 400.0,255.99999999999997 L 442.5,255.99999999999997 L 485.0,255.99999999999997 L 527.5,255.99999999999997 L 570.0,326.0 L 612.5,326.0 L 655.0,326.0 L 697.5,326.0 L 740.0,326.0" class="lr-line"/>
    <line x1="650" y1="80" x2="670" y2="80" class="lr-line"/>
    <text x="675" y="84" class="axis-label">Learning Rate</text>
</svg>